<svg width="52" height="52" viewBox="0 0 52 52" fill="none" xmlns="http://www.w3.org/2000/svg">
<path d="M45.5 9.75H6.5C5.63805 9.75 4.8114 10.0924 4.2019 10.7019C3.59241 11.3114 3.25 12.138 3.25 13V39C3.25 39.862 3.59241 40.6886 4.2019 41.2981C4.8114 41.9076 5.63805 42.25 6.5 42.25H45.5C46.362 42.25 47.1886 41.9076 47.7981 41.2981C48.4076 40.6886 48.75 39.862 48.75 39V13C48.75 12.138 48.4076 11.3114 47.7981 10.7019C47.1886 10.0924 46.362 9.75 45.5 9.75ZM41.925 13L26 24.0175L10.075 13H41.925ZM6.5 39V14.4787L25.0738 27.3325C25.3458 27.5212 25.6689 27.6223 26 27.6223C26.3311 27.6223 26.6542 27.5212 26.9262 27.3325L45.5 14.4787V39H6.5Z" fill="#26AD80"/>
</svg>
